<svg id="Layer_1" data-name="Layer 1" xmlns="http://www.w3.org/2000/svg" xmlns:xlink="http://www.w3.org/1999/xlink" viewBox="0 0 100 100">
  <title>Apptuit_logo_white</title>
  <g>
    <path d="M50,85h-.776a140.556,140.556,0,0,1-33.391-3.64L8.4,79.667l1.531-7.44c.255-1.237,9.2-31.382,29.348-55.4C30.411,36.955,27.744,63.6,27.757,67.6c-.013,0,0,0-.013,0,.013,0,.256.024.256.024h0c9,1.275,14.824,1.961,22.477,1.91l-.477,0" style="fill: #ffffff"/>
    <path d="M50.188,29.287S39.722,40.107,32.452,62.733c0,0,2.7-37.535,17.733-55.723" style="fill: #ffffff"/>
    <path d="M50,85h1.456a140.556,140.556,0,0,0,33.391-3.64l7.436-1.693-1.531-7.44c-.255-1.237-9.2-31.382-29.348-55.4C70.269,36.955,72.985,65,72.973,69H73c-.013,0,0-1.343,0-1.343v-.038a146.313,146.313,0,0,1-22.977,1.91l-.023,0" style="fill: #ffffff"/>
    <path d="M50.191,29.4S61.43,40.107,68.7,62.733c0,0-3.473-37.556-18.51-55.743" style="fill: #ffffff"/>
  </g>
</svg>
